<svg width="120" height="46" viewBox="0 0 120 46" fill="none" xmlns="http://www.w3.org/2000/svg">
<path d="M38.0707 0H9.51863C4.26024 0 0 4.26094 0 9.5167V36.0917C0 41.3487 4.26024 45.6097 9.51863 45.6097H38.0707C43.3273 45.6097 47.589 41.3487 47.589 36.0917V9.5167C47.589 4.26094 43.3273 0 38.0707 0Z" fill="#80848A"/>
<path d="M23.6968 21.6183C23.6968 21.6183 21.7595 20.9915 21.7595 19.873V16.8462C21.7595 10.3299 17.7524 9.07595 14.9445 8.91269C14.6434 8.88501 14.4248 9.07595 14.3996 9.37603C14.3439 10.1937 14.3164 10.8478 14.2617 11.6939C14.2617 11.9122 14.4537 12.1569 14.6436 12.2119C16.553 12.7029 17.6438 14.1751 17.6438 16.8462C17.6438 18.7556 17.6438 19.0287 17.6438 19.3273C17.6438 21.4822 19.9608 22.8175 19.9608 22.8175V22.927C19.2523 23.2264 17.6438 24.2361 17.6438 26.1993C17.6438 26.5804 17.6438 26.99 17.6438 28.7622C17.6438 31.435 16.553 32.9069 14.6436 33.3982C14.4537 33.4513 14.2617 33.698 14.2617 33.9166C14.2894 34.87 14.2894 35.4145 14.3996 36.2326C14.425 36.506 14.6706 36.7239 14.9445 36.6975C17.7524 36.5335 21.7595 35.2789 21.7595 28.7622V25.9263C21.7595 24.6991 22.9872 24.3172 23.6427 24.1807C23.8599 24.153 24.0512 23.9076 24.0512 23.6904V22.1095C24.0512 21.8905 23.8599 21.6719 23.6968 21.6183Z" fill="white"/>
<path d="M35.1616 33.3981C33.2512 32.9067 32.1604 31.4349 32.1604 28.7621C32.1604 26.9899 32.1604 26.5803 32.1604 26.1991C32.1604 24.236 30.5512 23.2263 29.8437 22.9269V22.8174C29.8437 22.8174 32.1604 21.482 32.1604 19.3272C32.1604 19.0285 32.1604 18.7554 32.1604 16.846C32.1604 14.175 33.2512 12.7028 35.1616 12.2118C35.3515 12.1568 35.5425 11.9121 35.5425 11.6938C35.4871 10.8477 35.4592 10.1936 35.406 9.3759C35.3783 9.07583 35.1616 8.88489 34.8596 8.91257C32.0518 9.07583 28.0446 10.3297 28.0446 16.846V19.8729C28.0446 20.9914 26.1074 21.6181 26.1074 21.6181C25.9441 21.6719 25.752 21.8905 25.752 22.1095V23.6905C25.752 23.9077 25.9443 24.1531 26.1619 24.1808C26.817 24.3172 28.0446 24.6991 28.0446 25.9264V28.7621C28.0446 35.2788 32.0518 36.5334 34.8596 36.6973C35.1339 36.7236 35.3783 36.5057 35.406 36.2324C35.5151 35.4144 35.5151 34.8701 35.5425 33.9164C35.5425 33.6978 35.3515 33.451 35.1616 33.3981Z" fill="white"/>
<path d="M14.8607 16.444C14.8607 16.2555 14.6903 16.0847 14.5018 16.0847H12.1739C11.9638 16.0847 11.8127 16.2555 11.8127 16.444V24.1114C11.8127 25.4364 10.8098 26.4957 9.44607 26.4957C8.10318 26.4957 7.11712 25.4364 7.11712 24.1114V16.444C7.11712 16.2555 6.96665 16.0847 6.75924 16.0847H4.42995C4.24111 16.0847 4.07031 16.2555 4.07031 16.444V24.2622C4.07031 27.14 6.47353 29.5243 9.44589 29.5243C12.4379 29.5243 14.8605 27.14 14.8605 24.2622V16.444H14.8607Z" fill="white"/>
<path d="M39.9976 21.3647C38.4827 20.7512 37.9064 20.2138 37.9064 19.5031C37.9064 18.9851 38.4226 18.5242 39.1147 18.5242C40.2852 18.5242 41.688 19.5803 41.8604 19.6765C42.0321 19.8104 42.378 19.6375 42.5135 19.4267L43.4927 17.9477C43.5684 17.8142 43.6073 17.4684 43.376 17.3339C42.8006 16.9121 41.265 15.8938 39.268 15.8938C36.3123 15.8938 34.834 17.8142 34.834 19.7142C34.834 22.017 36.9077 23.3039 38.5582 23.9571C39.8634 24.4747 40.535 25.0889 40.535 25.8956C40.535 26.5672 39.9787 27.0475 39.2112 27.0475C37.9449 27.0475 36.5624 26.0296 36.4857 25.9914C36.3503 25.8956 35.9856 25.8565 35.8316 26.1063L34.9295 27.6993C34.7765 27.9693 34.834 28.046 35.0263 28.2375C35.4679 28.6801 36.8502 29.7156 39.3458 29.7156C42.1668 29.7156 43.8751 27.7195 43.8751 25.7423C43.8751 23.1318 41.4959 21.9601 39.9976 21.3647Z" fill="white"/>
<path d="M59.854 5.81864C59.854 5.70758 59.7538 5.60773 59.6425 5.60773H58.5887C58.4677 5.60773 58.379 5.70758 58.379 5.81864V10.3669C58.379 11.2988 57.7235 12.0424 56.7583 12.0424C55.7945 12.0424 55.1502 11.2988 55.1502 10.3558V5.81864C55.1502 5.70758 55.0612 5.60773 54.9391 5.60773H53.8853C53.774 5.60773 53.6738 5.70758 53.6738 5.81864V10.4336C53.6738 12.1197 55.0178 13.4841 56.7581 13.4841C58.5109 13.4841 59.8538 12.1197 59.8538 10.4336V5.81864H59.854Z" fill="#80848A"/>
<path d="M63.8812 12.209C63.1602 12.209 62.2614 11.5544 62.2058 11.5209C62.1063 11.4426 61.918 11.4426 61.8292 11.5976L61.4296 12.2861C61.3298 12.4635 61.3851 12.5196 61.4853 12.6189C61.7064 12.8298 62.5282 13.4839 63.9257 13.4839C65.4907 13.4839 66.4757 12.4297 66.4757 11.287C66.4757 9.85639 65.2337 9.21263 64.1578 8.78012C63.26 8.41471 62.8492 8.05928 62.8492 7.53778C62.8492 7.18236 63.1926 6.76141 63.8265 6.76141C64.4356 6.76141 65.2796 7.31601 65.3676 7.37154C65.5007 7.45983 65.6673 7.37154 65.7563 7.23824L66.1781 6.60638C66.2548 6.4948 66.2226 6.30578 66.1113 6.23974C65.8894 6.07333 65.024 5.49683 63.8922 5.49683C62.1284 5.49683 61.3965 6.63914 61.3965 7.62642C61.3965 8.9355 62.4393 9.60134 63.4827 10.0223C64.4139 10.4 64.8909 10.788 64.8909 11.3541C64.8909 11.8313 64.4588 12.209 63.8812 12.209Z" fill="#80848A"/>
<path d="M68.2306 13.3736H72.7468C72.8675 13.3736 72.9565 13.2737 72.9565 13.1625V12.2523C72.9565 12.1417 72.8675 12.0424 72.7468 12.0424H69.4626V10.1003H72.2015C72.3138 10.1003 72.4133 10.0116 72.4133 9.88987V8.96915C72.4133 8.85739 72.3138 8.75807 72.2015 8.75807H69.4626V6.9387H72.7468C72.8675 6.9387 72.9565 6.83938 72.9565 6.72832V5.81864C72.9565 5.70758 72.8675 5.60773 72.7468 5.60773H68.2306C68.1099 5.60773 68.0195 5.70758 68.0195 5.81864V13.1625C68.0195 13.2735 68.1099 13.3736 68.2306 13.3736Z" fill="#80848A"/>
<path d="M80.3441 13.0514L78.8246 10.233C79.7888 9.84537 80.4665 9.01399 80.4665 7.99273C80.4665 6.67279 79.3775 5.60773 78.0474 5.60773H74.8752C74.7531 5.60773 74.6641 5.70758 74.6641 5.81864V13.1625C74.6641 13.2737 74.7531 13.3736 74.8752 13.3736H75.8957C76.007 13.3736 76.1058 13.2737 76.1058 13.1625V10.3334H77.3374L78.8138 13.2735C78.835 13.3173 78.8914 13.3734 78.9904 13.3734H80.1567C80.3441 13.3736 80.4208 13.1959 80.3441 13.0514ZM77.9249 9.14625H76.117V6.9387H77.9248C78.5125 6.9387 79.0233 7.42726 79.0233 8.01515C79.0235 8.63579 78.5126 9.14625 77.9249 9.14625Z" fill="#80848A"/>
<path d="M58.5101 18.9218H53.9966C53.8731 18.9218 53.7852 19.0217 53.7852 19.1325V26.4762C53.7852 26.5878 53.8731 26.6873 53.9966 26.6873H58.5101C58.6326 26.6873 58.7209 26.5878 58.7209 26.4762V25.5669C58.7209 25.4556 58.6326 25.3561 58.5101 25.3561H55.227V23.4149H57.9659C58.0782 23.4149 58.177 23.3259 58.177 23.2038V22.2827C58.177 22.1718 58.0782 22.0723 57.9659 22.0723H55.227V20.2538H58.5101C58.6326 20.2538 58.7209 20.1533 58.7209 20.0428V19.1327C58.7209 19.0217 58.6326 18.9218 58.5101 18.9218Z" fill="#80848A"/>
<path d="M59.8412 19.232L62.0614 22.7047L59.7533 26.3765C59.6643 26.5202 59.7533 26.6871 59.9521 26.6871H61.151C61.2396 26.6871 61.3064 26.6314 61.3398 26.5876L62.9034 24.0465H62.9369L64.5233 26.5876C64.5466 26.6314 64.6242 26.6871 64.7118 26.6871H65.9103C66.0988 26.6871 66.1867 26.5317 66.0988 26.3765L63.7924 22.7047L66.0212 19.232C66.1102 19.0884 66.0212 18.9218 65.8338 18.9218H64.5466C64.4576 18.9218 64.3908 18.9768 64.3686 19.0217L62.9267 21.3736H62.9148L61.4954 19.0217C61.4619 18.9768 61.4067 18.9218 61.3178 18.9218H60.0306C59.8412 18.9218 59.7533 19.0884 59.8412 19.232Z" fill="#80848A"/>
<path d="M69.0067 26.4762V23.8694H70.3937C71.7466 23.8694 72.867 22.7492 72.867 21.3736C72.867 20.0314 71.7466 18.9218 70.3827 18.9218H67.7759C67.6534 18.9218 67.5645 19.0217 67.5645 19.1325V26.4762C67.5645 26.5878 67.6534 26.6873 67.7759 26.6873H68.7965C68.9073 26.6873 69.0067 26.5878 69.0067 26.4762ZM69.0067 20.2855H70.2938C70.9148 20.2855 71.4365 20.7522 71.4365 21.3625C71.4365 22.0166 70.9147 22.5159 70.2938 22.5159H69.0067V20.2855Z" fill="#80848A"/>
<path d="M78.9814 18.9218H74.4666C74.3448 18.9218 74.2559 19.0217 74.2559 19.1325V26.4762C74.2559 26.5878 74.3448 26.6873 74.4666 26.6873H78.9814C79.1038 26.6873 79.1914 26.5878 79.1914 26.4762V25.5669C79.1914 25.4556 79.1038 25.3561 78.9814 25.3561H75.6961V23.4149H78.4373C78.5485 23.4149 78.648 23.3259 78.648 23.2038V22.2827C78.648 22.1718 78.5485 22.0723 78.4373 22.0723H75.6961V20.2538H78.9814C79.1038 20.2538 79.1914 20.1533 79.1914 20.0428V19.1327C79.1914 19.0217 79.1038 18.9218 78.9814 18.9218Z" fill="#80848A"/>
<path d="M86.5806 26.3657L85.0601 23.5478C86.0263 23.1591 86.7037 22.3277 86.7037 21.3072C86.7037 19.9872 85.615 18.9218 84.2848 18.9218H81.1115C80.9894 18.9218 80.9004 19.0217 80.9004 19.1325V26.4762C80.9004 26.5878 80.9894 26.6873 81.1115 26.6873H82.132C82.2433 26.6873 82.3431 26.5878 82.3431 26.4762V23.6475H83.5737L85.0498 26.5878C85.0723 26.6316 85.1277 26.6873 85.2263 26.6873H86.393C86.5806 26.6873 86.6571 26.51 86.5806 26.3657ZM84.1627 22.4598H82.3542V20.2537H84.1627C84.7502 20.2537 85.261 20.7415 85.261 21.3294C85.261 21.9515 84.7502 22.4598 84.1627 22.4598Z" fill="#80848A"/>
<path d="M88.6232 26.6873H89.6548C89.7646 26.6873 89.8662 26.5878 89.8662 26.4762V19.1325C89.8662 19.0217 89.7646 18.9218 89.6548 18.9218H88.6232C88.512 18.9218 88.4121 19.0217 88.4121 19.1325V26.4762C88.4121 26.5878 88.512 26.6873 88.6232 26.6873Z" fill="#80848A"/>
<path d="M92.2189 26.6873H96.7328C96.8563 26.6873 96.9439 26.5878 96.9439 26.4762V25.5669C96.9439 25.4557 96.8563 25.3562 96.7328 25.3562H93.4483V23.4149H96.1898C96.2996 23.4149 96.3994 23.3259 96.3994 23.2038V22.2827C96.3994 22.1718 96.2996 22.0723 96.1898 22.0723H93.4483V20.2538H96.7328C96.8563 20.2538 96.9439 20.1533 96.9439 20.0428V19.1327C96.9439 19.0218 96.8563 18.922 96.7328 18.922H92.2189C92.0954 18.922 92.0078 19.0218 92.0078 19.1327V26.4764C92.0078 26.5878 92.0954 26.6873 92.2189 26.6873Z" fill="#80848A"/>
<path d="M104.998 18.9218H103.977C103.856 18.9218 103.766 19.0217 103.766 19.1326V23.7144H103.756L99.1409 18.8106H98.8631C98.7532 18.8106 98.6523 18.8996 98.6523 19.0108V26.4762C98.6523 26.5878 98.7532 26.6873 98.8631 26.6873H99.8728C99.9952 26.6873 100.083 26.5878 100.083 26.4762V21.7064H100.095L104.732 26.7973H104.998C105.109 26.7973 105.208 26.7094 105.208 26.5985V19.1324C105.208 19.0217 105.109 18.9218 104.998 18.9218Z" fill="#80848A"/>
<path d="M112.81 24.7126C112.743 24.6455 112.621 24.635 112.532 24.7126C112.065 25.0899 111.5 25.3448 110.836 25.3448C109.415 25.3448 108.35 24.1695 108.35 22.7832C108.35 21.385 109.403 20.1976 110.823 20.1976C111.444 20.1976 112.065 20.4422 112.532 20.8521C112.621 20.9418 112.732 20.9418 112.81 20.8521L113.486 20.1531C113.575 20.0649 113.575 19.9314 113.476 19.8431C112.721 19.166 111.91 18.8104 110.791 18.8104C108.572 18.8104 106.785 20.597 106.785 22.8151C106.785 25.0335 108.572 26.7972 110.791 26.7972C111.778 26.7972 112.731 26.4536 113.486 25.7218C113.565 25.6442 113.586 25.4993 113.497 25.4227L112.81 24.7126Z" fill="#80848A"/>
<path d="M119.79 20.2538C119.912 20.2538 120 20.1533 120 20.0428V19.1327C120 19.0218 119.912 18.922 119.79 18.922H115.276C115.154 18.922 115.064 19.0218 115.064 19.1327V26.4764C115.064 26.588 115.154 26.6875 115.276 26.6875H119.79C119.912 26.6875 120 26.588 120 26.4764V25.5671C120 25.4558 119.912 25.3563 119.79 25.3563H116.506V23.415H119.245C119.357 23.415 119.457 23.3261 119.457 23.204V22.2829C119.457 22.172 119.357 22.0725 119.245 22.0725H116.506V20.254H119.79V20.2538Z" fill="#80848A"/>
<path d="M56.0581 35.4088C55.1596 35.042 54.7497 34.6872 54.7497 34.1661C54.7497 33.8121 55.0943 33.3894 55.7258 33.3894C56.3354 33.3894 57.1785 33.9443 57.2689 33.999C57.4021 34.0883 57.5676 33.999 57.6576 33.8665L58.0784 33.2347C58.1553 33.1238 58.1229 32.9346 58.012 32.8682C57.7887 32.7013 56.9244 32.1251 55.794 32.1251C54.0292 32.1251 53.297 33.2674 53.297 34.2545C53.297 35.564 54.3398 36.2293 55.3816 36.6509C56.3146 37.0283 56.7912 37.417 56.7912 37.9816C56.7912 38.4598 56.358 38.8366 55.7815 38.8366C55.0607 38.8366 54.1622 38.1818 54.1067 38.1485C54.0065 38.0709 53.8176 38.0709 53.7286 38.2264L53.3294 38.9142C53.2303 39.0911 53.286 39.1468 53.3855 39.2463C53.6069 39.4571 54.4286 40.1122 55.8271 40.1122C57.39 40.1122 58.3783 39.0584 58.3783 37.9153C58.3785 36.4842 57.1354 35.8409 56.0581 35.4088Z" fill="#80848A"/>
<path d="M63.3492 32.1252C61.1299 32.1252 59.3652 33.9111 59.3652 36.1299C59.3652 38.348 61.1299 40.1123 63.3492 40.1123C65.5673 40.1123 67.3423 38.348 67.3423 36.1299C67.3423 33.9111 65.5673 32.1252 63.3492 32.1252ZM63.3492 38.6703C61.9508 38.6703 60.808 37.5273 60.808 36.1299C60.808 34.7317 61.9506 33.5673 63.3492 33.5673C64.7468 33.5673 65.9008 34.7315 65.9008 36.1299C65.9008 37.5273 64.7468 38.6703 63.3492 38.6703Z" fill="#80848A"/>
<path d="M74.3769 38.0265C74.3098 37.9594 74.1867 37.9482 74.0987 38.0265C73.6334 38.4042 73.0682 38.6587 72.4016 38.6587C70.982 38.6587 69.9169 37.4831 69.9169 36.0964C69.9169 34.6987 70.971 33.5112 72.3902 33.5112C73.0112 33.5112 73.6333 33.7556 74.0985 34.166C74.1865 34.2547 74.2986 34.2547 74.3767 34.166L75.0531 33.4671C75.1407 33.3784 75.1407 33.245 75.0419 33.1565C74.2877 32.4794 73.4779 32.1252 72.3575 32.1252C70.1391 32.1252 68.3535 33.9111 68.3535 36.1299C68.3535 38.348 70.1391 40.1123 72.3575 40.1123C73.3446 40.1123 74.2988 39.7685 75.0532 39.0359C75.1308 38.9576 75.1541 38.8134 75.0652 38.7362L74.3769 38.0265Z" fill="#80848A"/>
<path d="M77.8705 32.2355H76.84C76.7277 32.2355 76.6289 32.3357 76.6289 32.4466V39.7899C76.6289 39.9015 76.7277 40.0006 76.84 40.0006H77.8705C77.9828 40.0006 78.0816 39.9015 78.0816 39.7899V32.4466C78.0816 32.3357 77.9828 32.2355 77.8705 32.2355Z" fill="#80848A"/>
<path d="M84.9505 32.2355H80.4357C80.3136 32.2355 80.2246 32.3357 80.2246 32.4466V39.7899C80.2246 39.9015 80.3136 40.0006 80.4357 40.0006H84.9505C85.0729 40.0006 85.1615 39.9015 85.1615 39.7899V38.8802C85.1615 38.7707 85.0729 38.6705 84.9505 38.6705H81.6673V36.7282H84.4062C84.5185 36.7282 84.6176 36.6395 84.6176 36.5174V35.5974C84.6176 35.4865 84.5185 35.387 84.4062 35.387H81.6673V33.5675H84.9505C85.0729 33.5675 85.1615 33.4673 85.1615 33.3561V32.4467C85.1615 32.3357 85.0731 32.2355 84.9505 32.2355Z" fill="#80848A"/>
<path d="M91.0621 32.2355H86.215C86.0929 32.2355 86.0039 32.3357 86.0039 32.4466V33.3559C86.0039 33.4671 86.0929 33.5673 86.215 33.5673H87.911V39.7897C87.911 39.9013 88.0123 40.0004 88.1221 40.0004H89.1541C89.265 40.0004 89.3659 39.9013 89.3659 39.7897V33.5673H91.0622C91.1843 33.5673 91.2733 33.4671 91.2733 33.3559V32.4466C91.2732 32.3357 91.1842 32.2355 91.0621 32.2355Z" fill="#80848A"/>
<path d="M98.2312 32.2355H97.0885C97.0009 32.2355 96.9442 32.2919 96.9119 32.3357L95.1369 34.8876L93.3618 32.3357C93.3273 32.2919 93.2721 32.2355 93.1833 32.2355H92.0526C91.8746 32.2355 91.786 32.4131 91.8746 32.5571L94.4038 36.2631V39.7899C94.4038 39.9015 94.4928 40.0006 94.6152 40.0006H95.6354C95.746 40.0006 95.8469 39.9015 95.8469 39.7899V36.2522L98.4088 32.5571C98.4976 32.4131 98.4088 32.2355 98.2312 32.2355Z" fill="#80848A"/>
</svg>
